<?xml version="1.0" encoding="utf-8"?>
<!-- Generator: Adobe Illustrator 24.0.0, SVG Export Plug-In . SVG Version: 6.00 Build 0)  -->
<svg version="1.1" id="Layer_1" xmlns="http://www.w3.org/2000/svg" xmlns:xlink="http://www.w3.org/1999/xlink" x="0px" y="0px"
	 viewBox="0 0 1280 709" style="enable-background:new 0 0 1280 709;" xml:space="preserve">
<style type="text/css">
	.st0{fill:#FFFFFF;}
</style>
<g transform="translate(0.000000,709.000000) scale(0.100000,-0.100000)">
	<path class="st0" d="M6495,6880c-906-100-1716-587-2210-1328c-95-144-193-330-250-477c-22-55-40-102-42-104c-2-3-31,5-66,17
		c-265,92-594,66-859-69c-138-70-291-199-383-324c-96-129-170-305-197-466l-11-71l-31,7c-132,27-475,32-671,10
		c-713-80-1288-418-1603-942c-217-362-225-828-22-1233c145-291,453-575,815-750c656-319,1487-328,2181-24c7,3,35-39,67-101
		c216-414,606-700,1100-807c147-32,447-32,589-1c291,65,548,198,762,394l53,48l51-24c63-29,243-88,336-109c368-86,769-66,1128,54
		c168,56,288,114,455,220c20,13,27,9,110-61c114-97,179-145,283-210c573-354,1298-456,1985-279c305,79,606,228,865,428
		c116,90,320,297,375,381c25,38,52,75,61,82c11,9,51,12,142,10c80-1,159,4,214,14c493,87,905,459,1037,934c49,177,50,426,2,613
		c-115,447-483,801-960,925c-118,30-347,42-456,24c-163-28-133-37-248,80c-280,285-659,487-1146,610c-85,21-156,40-157,42
		c-2,2-13,57-24,123c-46,266-123,498-249,749c-382,757-1081,1315-1921,1534c-239,62-413,82-740,86C6703,6887,6539,6885,6495,6880z"
		/>
</g>
</svg>
