<svg xmlns="http://www.w3.org/2000/svg" width="200.001" height="130.338" viewBox="0 0 89 58">
  <defs>
    <style>
      .cls-1 {
        fill: #fff;
      }

      .cls-1, .cls-2, .cls-3 {
        fill-rule: evenodd;
      }

      .cls-3 {
        fill: #bed9ef;
      }
    </style>
  </defs>
  <path id="Заливка_цветом_2" data-name="Заливка цветом 2" class="cls-1" d="M15,25c-2.525,2.886-6.675,1.056-10,4A14.425,14.425,0,0,0,0,40a12.441,12.441,0,0,0,3,8c0.953,1.046,4.949,3.168,10,4a12.63,12.63,0,0,0,5,0c1.144-.445,1.834-1.117,3-1,1.282,0.128,2.009,1.095,3,2a17.211,17.211,0,0,0,3,2c3.791,2.066,7.148,2.535,10,2,3.328-.624,5.405-2.087,6-3,0.788-1.21.856-2.473,2-3a2.382,2.382,0,0,1,2,0c1.328,0.669,1.2,2.88,2,4,1.8,2.519,6.545,3.1,10,2,2.86-.913,4.995-4.2,8-4,1.659,0.112,2.33,1.13,4,2a12.961,12.961,0,0,0,13-1,11.653,11.653,0,0,0,5-9c0.039-4.215-3.1-6.2-4-10-1.173-4.982,1.482-7.046,0-12-1.3-4.359-5.208-8.971-10-10-4.664-1-8.681,2.864-12,1-3.749-2.105-1.938-8.656-6-12C53.939-.52,49.146-0.465,46,1c-3.267,1.522-3.113,6.151-6,7-2.788.82-5.355-2.644-9-3-2.717-.266-5.731.7-9,3a15.081,15.081,0,0,0-4,4C15.174,16.7,17.949,21.63,15,25Z"/>
  <path id="Заливка_цветом_1" data-name="Заливка цветом 1" class="cls-2" d="M29,22h3l1,1v3l-1,1H29a1.794,1.794,0,0,1-1-1.142V23ZM19-9,58,23l1-1h3l1,1v3l-1,1H59l-1-1V23ZM42,31v1l1,1h4l1-1V31H47l-1,1H44l-1-1H42Z"/>
  <path id="Заливка_цветом_3" data-name="Заливка цветом 3" class="cls-3" d="M21,32l-1-5,5-1a12.7,12.7,0,0,1,1,5A12.7,12.7,0,0,1,21,32Zm49-5v4a12.7,12.7,0,0,1-5,1,12.7,12.7,0,0,1-1-5,10.6,10.6,0,0,1,4-1C69.139,27.139,68,26.4,70,27Z"/>
</svg>
